<svg width="28" height="30" viewBox="0 0 28 30" fill="none" xmlns="http://www.w3.org/2000/svg">
<path d="M24.5 3H23V1.5C23 0.675 22.325 0 21.5 0C20.675 0 20 0.675 20 1.5V3H8V1.5C8 0.675 7.325 0 6.5 0C5.675 0 5 0.675 5 1.5V3H3.5C1.835 3 0.515 4.35 0.515 6L0.5 27C0.5 28.65 1.835 30 3.5 30H24.5C26.15 30 27.5 28.65 27.5 27V6C27.5 4.35 26.15 3 24.5 3ZM24.5 25.5C24.5 26.325 23.825 27 23 27H5C4.175 27 3.5 26.325 3.5 25.5V10.5H24.5V25.5ZM6.5 13.5H9.5V16.5H6.5V13.5ZM12.5 13.5H15.5V16.5H12.5V13.5ZM18.5 13.5H21.5V16.5H18.5V13.5Z" fill="#D0BCFF"/>
</svg>
