<svg width="16" height="16" viewBox="0 0 16 16" fill="none" xmlns="http://www.w3.org/2000/svg">
<path d="M14.1259 0.898201C12.0147 -0.733813 9.40768 0.0277934 8.00022 1.89554C6.59276 0.0277934 3.98576 -0.74288 1.87457 0.898201C0.755005 1.76861 0.0512759 3.23742 0.00329431 4.78783C-0.108663 8.30573 2.64228 11.1255 6.84067 15.4503L6.92063 15.5319C7.5284 16.1575 8.46404 16.1575 9.07181 15.5229L9.15977 15.4322C13.3582 11.1164 16.1011 8.29666 15.9971 4.77877C15.9492 3.23742 15.2454 1.76861 14.1259 0.898201ZM8.08019 14.0994L8.00022 14.19L7.92025 14.0994C4.11371 10.1916 1.60268 7.60759 1.60268 4.9873C1.60268 3.17395 2.80222 1.81394 4.4016 1.81394C5.63313 1.81394 6.83267 2.71155 7.25651 3.95369H8.75193C9.16777 2.71155 10.3673 1.81394 11.5988 1.81394C13.1982 1.81394 14.3978 3.17395 14.3978 4.9873C14.3978 7.60759 11.8867 10.1916 8.08019 14.0994Z" fill="#D0BCFF"/>
</svg>
